<?xml version="1.0" standalone="no"?>
<!DOCTYPE svg PUBLIC "-//W3C//DTD SVG 20010904//EN"
 "http://www.w3.org/TR/2001/REC-SVG-20010904/DTD/svg10.dtd">
<svg version="1.0" xmlns="http://www.w3.org/2000/svg"
 width="260.000000pt" height="260.000000pt" viewBox="0 0 260.000000 260.000000"
 preserveAspectRatio="xMidYMid meet">
<metadata>
Created by potrace 1.11, written by Peter Selinger 2001-2013
</metadata>
<g transform="translate(0.000000,260.000000) scale(0.100000,-0.100000)"
fill="#000000" stroke="none">
<path d="M1573 2102 c-142 -51 -221 -177 -211 -337 12 -191 169 -319 369 -302
133 11 235 86 280 206 28 77 24 205 -9 273 -30 61 -90 120 -150 148 -67 32
-207 38 -279 12z m198 -35 c51 -34 78 -92 90 -191 20 -167 -16 -315 -91 -364
-28 -19 -45 -23 -82 -19 -64 6 -95 29 -126 95 -25 54 -27 66 -27 203 0 142 1
147 30 204 48 92 132 122 206 72z"/>
<path d="M590 2100 c0 -5 13 -10 28 -10 60 0 62 -9 62 -303 0 -292 -1 -297
-61 -297 -16 0 -29 -4 -29 -10 0 -6 60 -10 160 -10 149 0 201 9 130 24 -41 8
-50 36 -50 161 0 86 3 104 16 109 9 4 18 5 19 4 1 -2 39 -49 83 -106 100 -125
107 -139 91 -158 -6 -8 -18 -14 -25 -14 -8 0 -14 -4 -14 -10 0 -6 62 -10 165
-10 152 0 202 9 141 24 -14 3 -39 18 -57 33 -46 39 -280 336 -271 344 78 69
271 211 293 216 65 13 22 23 -96 23 -77 0 -125 -4 -125 -10 0 -5 11 -10 24
-10 33 0 51 -25 39 -52 -5 -11 -70 -69 -144 -128 l-134 -108 -3 112 c-3 133 5
164 48 172 71 15 19 24 -130 24 -100 0 -160 -4 -160 -10z"/>
<path d="M466 1083 c-127 -289 -154 -338 -191 -355 -46 -21 -25 -28 80 -28 63
0 105 4 105 10 0 6 -9 10 -21 10 -27 0 -55 16 -63 35 -3 8 4 40 15 71 l21 55
115 -3 115 -3 26 -62 c29 -71 22 -93 -29 -93 -16 0 -29 -4 -29 -10 0 -6 58
-10 155 -10 85 0 155 3 155 8 0 4 -10 12 -22 17 -36 16 -58 57 -184 348 -65
152 -121 277 -124 277 -3 0 -59 -120 -124 -267z m113 -62 c23 -52 41 -96 41
-98 0 -2 -42 -3 -94 -3 l-94 0 46 105 c26 57 50 101 54 97 3 -4 25 -49 47
-101z"/>
<path d="M940 1330 c0 -5 9 -10 19 -10 11 0 34 -12 51 -26 l31 -27 -3 -254
c-3 -254 -3 -255 -27 -274 -13 -10 -34 -19 -47 -19 -13 0 -24 -4 -24 -10 0 -6
45 -10 115 -10 70 0 115 4 115 10 0 6 -11 10 -25 10 -14 0 -37 11 -50 25 l-25
24 0 223 1 223 34 -40 c19 -22 114 -140 212 -262 98 -122 181 -222 185 -222 4
-1 8 131 10 292 3 318 4 320 59 332 60 13 25 25 -76 25 -107 0 -131 -8 -72
-25 51 -16 58 -43 55 -215 l-3 -150 -154 195 -154 195 -114 0 c-69 0 -113 -4
-113 -10z"/>
<path d="M1630 1330 c0 -5 9 -10 19 -10 11 0 34 -12 51 -26 l31 -27 -3 -254
c-3 -254 -3 -255 -27 -274 -13 -10 -34 -19 -47 -19 -13 0 -24 -4 -24 -10 0 -6
45 -10 115 -10 70 0 115 4 115 10 0 6 -11 10 -25 10 -14 0 -37 11 -50 25 l-25
24 0 223 1 223 34 -40 c19 -22 114 -140 212 -262 98 -122 181 -222 185 -222 4
-1 8 131 10 292 3 318 4 320 59 332 60 13 25 25 -76 25 -107 0 -131 -8 -72
-25 51 -16 58 -43 55 -215 l-3 -150 -154 195 -154 195 -114 0 c-69 0 -113 -4
-113 -10z"/>
</g>
</svg>
